<svg width="58" height="30" viewBox="0 0 58 30" fill="none" xmlns="http://www.w3.org/2000/svg">
<path d="M5.39687 16.8861C2.99158 17.0579 2.53343 18.3894 2.60501 19.0337C15.061 23.5436 21.0742 22.8993 28.8055 22.2551C33.9597 21.8255 50.9256 20.1075 56.5093 19.8927C56.4377 18.8905 56.1656 17.0579 55.6502 14.309C55.006 10.8729 53.7174 8.08103 51.7846 8.08103C49.8518 8.08103 49.2075 11.0876 47.2747 11.9467C45.3418 12.8057 43.409 14.0942 38.6843 9.36957C33.9597 4.64489 33.7449 5.93344 31.3826 7.6515C29.0202 9.36957 16.9938 14.7385 14.2019 16.0271C11.4101 17.3156 8.40348 16.6713 5.39687 16.8861Z" fill="#FAFAFA"/>
<path d="M46.6303 15.1676C45.5995 14.6522 45.3418 13.6643 45.3418 12.8053C45.3418 12.8053 46.5285 12.7287 48.1337 11.302C50.0665 9.58389 50.0665 8.29534 51.7845 8.0806C53.0808 7.91859 54.5764 10.2282 55.0059 11.5167C55.3495 12.5476 55.7218 14.8097 55.8649 15.8119C55.507 15.8835 54.848 15.8688 54.5764 15.5971C54.1469 15.1676 53.2878 14.3086 52.6436 14.3086C51.9993 14.3086 51.1403 14.7381 50.2812 15.1676C49.4222 15.5971 47.9189 15.8119 46.6303 15.1676Z" fill="#D9D9D9"/>
<path d="M2.14684 19.678C2.07526 19.0337 2.99133 17.0579 5.39662 16.8861C8.40323 16.6713 11.4098 17.3156 14.2017 16.0271C16.9935 14.7385 29.02 9.36957 31.3823 7.6515C33.7447 5.93344 33.9594 4.64489 38.6841 9.36957C43.4088 14.0942 45.3416 12.8057 47.2744 11.9467C49.2072 11.0876 49.8515 8.08103 51.7843 8.08103C53.7171 8.08103 55.0057 10.8729 55.65 14.309C56.1654 17.0579 56.4374 18.6758 56.509 19.678" stroke="#3C3C3C" stroke-linecap="round"/>
<path d="M17.8524 14.3086C16.7786 14.8097 13.2995 16.9716 12.2687 18.1742C11.2378 19.3769 10.3359 20.8229 10.1211 21.3956" stroke="#3C3C3C" stroke-linecap="round"/>
<path d="M38.899 9.79858C34.4606 11.6598 24.7249 15.9836 21.2888 18.3889C17.8527 20.7942 16.9937 22.2545 16.9937 22.6841" stroke="#3C3C3C" stroke-linecap="round"/>
<path d="M17.2083 26.3353C13.569 26.0442 6.89992 25.9058 2.17524 23.5435C0.0276614 22.0402 1.31633 19.8925 2.17536 19.8925C3.27042 19.8925 10.1213 21.8254 15.2755 22.4697C20.4297 23.1139 26.2281 22.4136 30.738 21.8254C32.2414 21.6293 42.4134 20.8808 45.1268 20.7516C49.6367 20.5368 56.3655 19.2863 56.6182 20.1073C57.4772 22.8992 56.6182 25.1996 56.6182 25.1996C56.6182 25.1996 48.3482 26.1206 45.9859 26.1206C43.8294 26.1206 34.6216 26.5501 30.0938 26.5501C25.7986 26.5501 22.5772 26.7648 17.2083 26.3353Z" fill="#FAFAFA" stroke="#3C3C3C"/>
<path d="M30.3898 11.5418C30.2746 11.6074 30.1488 11.6352 30.0304 11.6415C29.7048 11.6586 29.3952 11.4966 29.2309 11.1952C29.0011 10.7783 29.1604 10.2603 29.5765 10.0302C29.9927 9.80017 30.51 9.95977 30.7397 10.3766C30.9653 10.7937 30.8102 11.3116 30.394 11.5416L30.3898 11.5418Z" fill="#2D2D2D"/>
<path d="M34.4906 8.42732C34.7372 8.83101 34.5993 9.36127 34.1912 9.60389C34.0676 9.67843 33.9335 9.71526 33.7979 9.72242C33.4968 9.73829 33.1829 9.58901 33.0191 9.30426C32.7725 8.90057 32.9061 8.37054 33.3139 8.12368C33.7265 7.88508 34.2565 8.01872 34.4948 8.4271L34.4906 8.42732Z" fill="#2D2D2D"/>
<path d="M22.4085 15.8468C22.3091 15.8988 22.1956 15.926 22.0852 15.9318C21.7456 15.9497 21.4168 15.7674 21.2638 15.4485C21.058 15.0175 21.2437 14.5023 21.667 14.2973C22.0949 14.0964 22.6067 14.2775 22.812 14.7C23.0177 15.1309 22.8401 15.6372 22.4083 15.8426L22.4085 15.8468Z" fill="#2D2D2D"/>
<path d="M26.1957 13.9182C26.088 13.9706 25.971 14.0066 25.8524 14.0128C25.5263 14.03 25.2027 13.8516 25.0421 13.5455C24.8286 13.1191 24.9966 12.6003 25.4187 12.391C25.8446 12.1731 26.3631 12.3412 26.5725 12.7679C26.7898 13.1857 26.6218 13.7045 26.2001 13.9222L26.1957 13.9182Z" fill="#2D2D2D"/>
<path d="M18.1916 17.7976C18.0921 17.8411 17.9874 17.8679 17.8858 17.8733C17.543 17.8914 17.2062 17.7005 17.0573 17.372C16.8602 16.9353 17.0581 16.4225 17.4893 16.2294C17.9208 16.0406 18.4274 16.2311 18.6242 16.6635C18.8169 17.1004 18.6233 17.613 18.1919 17.8018L18.1916 17.7976Z" fill="#2D2D2D"/>
<path d="M37.6105 4L34.3892 5.93282C35.42 6.27643 37.8253 8.50992 38.8991 9.58371C38.9707 9.15419 39.0709 7.90859 38.8991 6.36234C38.7273 4.81608 37.9685 4.14317 37.6105 4Z" fill="#FAFAFA" stroke="#3C3C3C"/>
</svg>
