<svg width="56" height="30" viewBox="0 0 56 30" fill="none" xmlns="http://www.w3.org/2000/svg">
<path d="M53.1617 2.04494C53.421 1.89655 53.6371 1.77277 53.8054 1.67628C53.8347 1.72832 53.866 1.78536 53.8992 1.84731C54.1031 2.22841 54.3743 2.79442 54.6354 3.52255C55.1576 4.97881 55.6381 7.0796 55.4635 9.6471C55.2881 12.2262 54.6982 13.9758 54.039 15.492C53.8549 15.9156 53.6602 16.3305 53.4652 16.7461C52.9718 17.7975 52.4764 18.8532 52.1443 20.0655C51.6828 21.75 51.3879 23.794 51.2082 25.4028C51.118 26.2102 51.0563 26.9136 51.0171 27.4156C51.0074 27.5397 50.9991 27.6515 50.992 27.7496H49.0767V19.473C49.0767 18.7955 48.9089 18.1983 48.5697 17.7173C48.2294 17.2349 47.7408 16.9041 47.1603 16.7213C46.0176 16.3617 44.51 16.5677 42.8786 17.277C39.6838 18.6659 32.8951 22.6178 28.5565 25.5519C26.3988 27.0111 24.8842 27.8945 23.4016 28.4203C21.9296 28.9423 20.4589 29.1222 18.3756 29.1222C9.51901 29.1222 5.16308 27.6721 2.60182 26.6871C1.3651 26.2115 0.847915 25.6666 0.639133 25.1837C0.426318 24.6913 0.480024 24.1436 0.649959 23.5401C0.68846 23.4034 0.853388 23.1803 1.28277 22.9061C1.6933 22.6438 2.26709 22.3845 2.96983 22.1394C4.37169 21.6504 6.20804 21.2447 8.08129 20.9732C10.2557 20.6638 12.3971 20.1661 14.4799 19.4862C14.5513 19.5383 14.6376 19.5953 14.7401 19.6536C15.0754 19.8444 15.5764 20.045 16.2817 20.1392C17.6902 20.3273 19.8841 20.0883 23.1833 18.5537C26.4492 17.0346 34.2208 12.7479 41.1541 8.8543C44.6256 6.90474 47.8941 5.04962 50.2947 3.68193C51.495 2.99807 52.4784 2.43603 53.1617 2.04494Z" fill="#FAFAFA" stroke="#3C3C3C"/>
</svg>
