<svg width="58" height="30" viewBox="0 0 58 30" fill="none" xmlns="http://www.w3.org/2000/svg">
<path d="M46.626 21.7685V19.8631L56.1531 19.4396V22.4036L47.8963 22.6153L46.626 21.7685Z" fill="#FAFAFA" stroke="#3C3C3C" stroke-linecap="round"/>
<path d="M47.8962 20.0745V22.4034" stroke="#3C3C3C" stroke-linecap="round"/>
<path d="M17.5184 23.2506C13.2841 23.2506 7.67074 22.192 3.1054 20.4983C-0.797804 18.5929 1.53105 17.1109 3.64819 17.5343C4.70675 17.746 10.3037 19.8628 15.3848 20.498C20.4659 21.1331 26.6221 19.5961 31.0681 19.0163C33.9232 18.6439 41.2165 17.6549 43.8738 17.3227C47.2612 16.8992 57 16.0524 57 16.8993C57 17.7461 55.9414 19.4399 55.9414 19.4399C55.9414 19.4399 44.9228 19.8642 42.6035 20.075C40.2746 20.2867 34.5584 21.1336 32.0178 21.557C28.028 22.2219 22.8112 23.2506 17.5184 23.2506Z" fill="#FAFAFA" stroke="#3C3C3C"/>
<path d="M12.0088 10.3624C11.8369 10.8419 10.0556 16.5802 9.68042 19.2278L12.8561 19.8629C13.9147 20.0746 16.667 20.498 16.667 20.498C16.667 20.498 18.7207 12.2944 18.9958 8.43036C17.7452 8.78814 12.1807 9.88289 12.0088 10.3624Z" fill="#FAFAFA" stroke="#3C3C3C"/>
<path d="M21.4693 20.1626L21.5358 20.2862L24.7116 19.8627C24.7116 19.8627 28.4733 19.4886 28.7343 19.2276C29.1576 18.8042 25.1351 10.5473 23.4414 7.37164C22.1908 7.72943 16.2034 8.79757 16.0315 9.27707C15.8621 9.74956 19.9324 17.3085 21.4693 20.1626Z" fill="#FAFAFA" stroke="#3C3C3C"/>
</svg>
