<svg width="54" height="30" viewBox="0 0 54 30" fill="none" xmlns="http://www.w3.org/2000/svg">
<path d="M13.4395 16.6897L13.4558 16.6881L13.4719 16.6854L13.3897 16.1922L13.472 16.6854L13.4721 16.6853L13.4728 16.6852L13.4754 16.6848L13.4859 16.683L13.5276 16.6761L13.6919 16.6486L14.3311 16.5416C14.8902 16.4479 15.7085 16.3105 16.7454 16.1356C18.8191 15.7858 21.7673 15.2861 25.2651 14.6865C28.8041 14.0798 35.6349 12.0188 41.5459 10.1233C44.5091 9.17309 47.2532 8.26048 49.2563 7.58547C50.2579 7.24794 51.0745 6.96977 51.6407 6.77595C51.8188 6.71499 51.9721 6.66238 52.0986 6.61888C52.1286 6.68682 52.1615 6.76333 52.1967 6.8481C52.3672 7.25797 52.5928 7.85999 52.8083 8.61891C53.2397 10.1379 53.6284 12.2774 53.4597 14.7593C53.3292 16.6786 53.084 17.8922 52.8787 18.6144C52.7872 18.9364 52.7038 19.1599 52.6425 19.3043L44.7529 19.6891C44.4269 19.6904 43.4423 19.7396 42.4782 19.7878L42.4424 19.7896C41.4323 19.8401 40.4525 19.8889 40.1691 19.8889H40.1552L40.1414 19.8897C39.7181 19.9132 39.3108 19.934 38.9126 19.9543C35.928 20.1065 33.4478 20.233 28.4733 21.299C27.7214 21.4601 27.0497 21.6065 26.4405 21.7393C22.5041 22.5975 21.1781 22.8866 17.7057 22.8866C9.17441 22.8866 4.97948 21.4898 2.51351 20.5415C1.32444 20.0842 0.831077 19.5619 0.632565 19.1026C0.43002 18.6341 0.480442 18.1114 0.64381 17.5312C0.795023 16.9942 1.21545 16.2495 1.63124 15.6028C1.83378 15.2878 2.02613 15.0097 2.16787 14.8104C2.1815 14.7913 2.19466 14.7728 2.2073 14.7552C2.23472 14.7615 2.26375 14.7681 2.29433 14.7751C2.55593 14.8351 2.93164 14.9204 3.38867 15.0221C4.3025 15.2255 5.54246 15.4948 6.8457 15.758C8.14794 16.0209 9.51813 16.2787 10.691 16.4584C11.8399 16.6345 12.8658 16.7471 13.4395 16.6897Z" fill="#FAFAFA" stroke="#3C3C3C"/>
<path d="M23.382 10.1966C22.4226 10.6761 8.59333 12.7947 2.19824 14.5933C4.99609 14.993 10.9515 16.7516 12.3904 16.5918C13.8293 16.4319 19.1186 15.5925 21.7832 14.993C22.1163 14.5933 23.8616 12.9947 24.1813 12.1953C24.581 11.196 24.3412 9.71705 23.382 10.1966Z" stroke="#3C3C3C"/>
<path d="M43.5664 21.7878V19.9892L52.5595 19.5895V22.3874L44.7655 22.5872L43.5664 21.7878Z" fill="#FAFAFA" stroke="#3C3C3C" stroke-linecap="round"/>
<path d="M44.7656 20.1891V22.3874" stroke="#3C3C3C" stroke-linecap="round"/>
</svg>
