<svg width="54" height="30" viewBox="0 0 54 30" fill="none" xmlns="http://www.w3.org/2000/svg">
<g clip-path="url(#clip0_1495_1238)">
<path d="M53.015 24.529C52.7842 24.7576 52.1644 25.3715 47.6401 25.3715C44.4039 25.3715 40.0578 25.0224 38.8184 24.6493C37.6154 24.2882 36.4772 23.9472 34.9543 23.9472C33.7027 23.9472 32.3175 24.1839 30.7135 24.6654C28.7369 25.2591 25.6545 25.6001 22.2522 25.6001C18.2626 25.6001 8.12846 25.0986 0.266618 20.4408C0.0640979 20.3205 -0.041209 20.0798 0.0154966 19.8511L0.128907 19.3616C0.303075 18.5954 0.444833 18.0096 0.890378 17.8251C0.781017 17.0989 0.77697 16.0077 1.48174 15.1492C2.32828 14.1141 3.90794 13.745 6.18021 14.0539C14.3742 15.1612 19.8868 11.5144 26.8656 6.90073C28.182 6.03015 29.547 5.12747 30.997 4.21276C31.3089 4.01618 31.6734 3.95199 32.0299 4.03624C32.3863 4.11648 32.6901 4.33713 32.8845 4.65006C34.2252 6.82049 36.9066 9.36804 42.087 9.22762C47.7576 9.06714 50.7346 7.11336 51.0546 6.8927C51.2815 6.73624 51.5771 6.74827 51.808 6.92881C52.7396 7.65095 55.0281 16.12 53.4768 20.5211C53.6995 21.171 54.2788 23.2813 53.015 24.533V24.529ZM22.2563 24.5169C25.5533 24.5169 28.5182 24.192 30.3976 23.6263C32.1068 23.1128 33.5974 22.864 34.9583 22.864C36.6392 22.864 37.9111 23.2452 39.1869 23.6263C40.1793 23.9232 44.2743 24.2842 47.6401 24.2842C51.6662 24.2842 52.2211 23.7827 52.2414 23.7587C52.8935 23.1128 52.7355 21.8891 52.533 21.1429C51.0789 21.4197 49.7018 21.4719 47.2229 21.4238L46.3683 21.4037C45.3233 21.3756 43.8895 21.3435 42.2531 21.3435C37.7936 21.3435 34.1482 21.6203 31.4142 22.17C28.1374 22.7998 24.7675 23.1168 21.4016 23.1168C10.3764 23.1168 2.76167 19.807 1.81793 19.1972C1.72072 19.133 1.51415 19.0006 1.36833 18.9163C1.31568 19.0888 1.25897 19.3456 1.20226 19.5983L1.17796 19.7067C6.47184 22.7196 14.3134 24.5129 22.2603 24.5129L22.2563 24.5169ZM6.0344 15.1251C4.19551 14.8764 2.91559 15.1211 2.33638 15.8272C1.74097 16.5533 1.94349 17.6446 2.0569 18.0698C2.16626 18.138 2.28372 18.2102 2.41333 18.2945C3.17481 18.7839 10.668 22.0376 21.3976 22.0376C24.6946 22.0376 27.9957 21.7246 31.1995 21.1108C33.889 20.5692 37.4412 20.2884 41.7387 20.2643C41.7346 20.2563 41.7306 20.2483 41.7265 20.2362C40.5843 17.7368 39.4057 15.1532 31.8233 16.6777C23.7022 18.3145 21.2436 15.9275 19.344 12.734C15.326 14.7359 11.2148 15.8232 6.0344 15.1251ZM31.957 5.21172C31.9165 5.14753 31.8598 5.10741 31.7909 5.09136C31.722 5.07532 31.6532 5.09136 31.5924 5.12747C30.1505 6.03817 28.7936 6.93683 27.4813 7.8034C24.9741 9.46031 22.6491 10.9929 20.3161 12.2405C21.754 14.7079 23.7184 17.2113 31.6127 15.6226C40.0497 13.9255 41.5362 17.1792 42.731 19.7949C42.804 19.9554 42.8769 20.1119 42.9498 20.2643C44.3107 20.2723 45.5015 20.3004 46.4048 20.3245H46.4493C49.9813 16.1281 48.349 10.9728 47.7617 9.48438C46.2954 9.89761 44.4241 10.2426 42.1275 10.3068C36.1208 10.4793 33.1802 7.18557 31.961 5.21172H31.957ZM51.2734 8.03609C50.7954 8.32093 49.9691 8.74619 48.7986 9.15541C49.4426 10.8324 50.9615 15.9275 47.7941 20.3486C49.9408 20.3807 51.1559 20.3165 52.4885 20.0477C53.7076 16.3768 52.0065 9.60474 51.2774 8.03208L51.2734 8.03609Z" fill="#3C3C3C"/>
<path d="M26.5951 11.3339C26.4857 11.3981 26.3642 11.4261 26.2508 11.4261C26.0159 11.4261 25.785 11.3058 25.6595 11.0972C25.4691 10.7722 25.5784 10.363 25.8984 10.1704C26.2265 9.98186 26.6397 10.0822 26.8341 10.4071C27.0244 10.7281 26.9151 11.1453 26.5951 11.3339Z" fill="#3C3C3C"/>
<path d="M31.2852 8.45732C31.1718 8.53354 31.0381 8.56965 30.9125 8.56965C30.6898 8.56965 30.471 8.46133 30.3374 8.26073C30.1308 7.94781 30.224 7.52656 30.5359 7.32596C30.8518 7.12136 31.2771 7.21363 31.4796 7.52656C31.6862 7.83949 31.593 8.25672 31.2811 8.45732H31.2852Z" fill="#3C3C3C"/>
<path d="M24.1772 12.6739H24.1813C24.076 12.7261 23.9666 12.7542 23.8654 12.7542C23.6183 12.7542 23.3793 12.6178 23.2578 12.3931C23.0836 12.0561 23.2092 11.6509 23.5413 11.4784C23.8816 11.3059 24.2907 11.4302 24.4648 11.7672C24.639 12.0962 24.5134 12.5014 24.1772 12.6779V12.6739Z" fill="#3C3C3C"/>
<path d="M28.953 9.9217C28.8436 9.99392 28.7181 10.026 28.5925 10.026C28.3616 10.026 28.1429 9.91368 28.0133 9.70506C27.8148 9.38411 27.9161 8.97088 28.232 8.7743C28.5561 8.57371 28.9732 8.66999 29.1717 8.99094C29.3742 9.31189 29.277 9.72512 28.953 9.9217Z" fill="#3C3C3C"/>
</g>
<defs>
<clipPath id="clip0_1495_1238">
<rect width="54" height="30" fill="white"/>
</clipPath>
</defs>
</svg>
